#!OML:ASF E:\I on waltz\AllaLogoMonkeySwing\Project 1\Capture day 1\Session 1\Subject1.ASF
:FULLY-SPECIFIED
:DEGREES
616
root -0.253477 17.9111 -3.45891 181.785 175.769 178.61
lowerback 4.94885 -1.24824 -2.62559
upperback -0.404992 -1.73986 2.63061
thorax -3.03437 -0.803441 4.32734
lowerneck -7.28285 -9.09533 -9.04667
upperneck 13.0401 -11.8958 4.91734
head 5.98184 -5.91067 2.05047
rclavicle -8.34896e-015 1.31198e-014
rhumerus -31.8626 -29.794 -67.1988
rradius 22.4157
rwrist 15.3651
rhand -16.0048 -46.5005
rfingers 7.12502
rthumb 10.1955 -76.2334
lclavicle -8.34896e-015 1.31198e-014
lhumerus -43.5532 24.2407 77.6423
lradius 42.9575
lwrist -0.986489
lhand -14.9808 -4.97816
lfingers 7.12502
lthumb 11.1833 24.7038
rfemur 0.0349517 0.255424 17.7268
rtibia 15.556
rfoot -14.3716 -10.1736
rtoes 9.68891
lfemur 2.70862 -1.69598 -13.6724
ltibia 10.4392
lfoot -14.0624 2.09523
ltoes -32.6036
617
root -0.250777 17.9121 -3.45849 181.769 175.795 178.499
lowerback 4.94106 -1.23153 -2.44644
upperback -0.383443 -1.70458 2.70215
thorax -3.01392 -0.788955 4.29725
lowerneck -7.27631 -9.08936 -9.03917
upperneck 12.9972 -11.883 4.88993
head 5.96414 -5.90597 2.04329
rclavicle -9.34288e-015 1.82882e-014
rhumerus -31.8329 -30.1173 -66.9606
rradius 22.4222
rwrist 15.7723
rhand -15.9264 -46.6997
rfingers 7.12502
rthumb 10.2712 -76.4289
lclavicle -9.34288e-015 1.82882e-014
lhumerus -43.5177 24.0973 77.722
lradius 43.0375
lwrist -0.960312
lhand -14.908 -4.92345
lfingers 7.12502
lthumb 11.2534 24.7547
rfemur 0.0398039 0.312221 17.8596
rtibia 15.5481
rfoot -14.4137 -10.197
rtoes 9.5496
lfemur 2.72229 -1.67181 -13.5425
ltibia 10.4335
lfoot -14.0424 2.10505
ltoes -32.6798
618
root -0.247751 17.912 -3.45855 181.746 175.833 178.394
lowerback 4.95936 -1.22669 -2.27789
upperback -0.36643 -1.68584 2.78304
thorax -3.01068 -0.782017 4.28501
lowerneck -7.30642 -9.07553 -9.07341
upperneck 12.9789 -11.8517 4.86026
head 5.96161 -5.89368 2.04123
rclavicle -1.77415e-014 1.90833e-014
rhumerus -31.7172 -30.2427 -66.8102
rradius 22.3594
rwrist 15.9214
rhand -15.9476 -46.9291
rfingers 7.12502
rthumb 10.2507 -76.6593
lclavicle -1.77415e-014 1.90833e-014
lhumerus -43.5119 24.134 77.7386
lradius 43.0842
lwrist -0.931112
lhand -14.9092 -4.83051
lfingers 7.12502
lthumb 11.2523 24.8477
rfemur 0.038185 0.389201 17.9952
rtibia 15.5663
rfoot -14.4276 -10.2357
rtoes 9.46882
lfemur 2.75748 -1.65346 -13.4283
ltibia 10.4159
lfoot -14.0093 2.14609
ltoes -32.7415
619
root -0.245286 17.912 -3.45924 181.748 175.855 178.457
lowerback 4.96418 -1.23523 -2.26962
upperback -0.355568 -1.69584 2.8175
thorax -3.00047 -0.787252 4.31691
lowerneck -7.2904 -9.07225 -9.19997
upperneck 12.9036 -11.8438 4.95797
head 5.94841 -5.8894 2.09318
rclavicle -2.69602e-014 3.97569e-015
rhumerus -31.5508 -30.2078 -66.7443
rradius 22.3183
rwrist 15.7355
rhand -16.0635 -47.1431
rfingers 7.12502
rthumb 10.1389 -76.8788
lclavicle -2.69602e-014 3.97569e-015
lhumerus -43.4936 24.2283 77.7419
lradius 43.1002
lwrist -0.917712
lhand -14.9891 -4.80416
lfingers 7.12502
lthumb 11.1753 24.8782
rfemur 0.00667903 0.41909 17.9207
rtibia 15.6226
rfoot -14.4596 -10.2572
rtoes 9.41873
lfemur 2.76539 -1.6617 -13.5201
ltibia 10.416
lfoot -14.0118 2.16047
ltoes -32.7959
620
root -0.243777 17.9123 -3.45958 181.76 175.887 178.65
lowerback 4.98278 -1.2327 -2.38845
upperback -0.361813 -1.70076 2.78562
thorax -3.01455 -0.787661 4.3521
lowerneck -7.22748 -9.05373 -9.16673
upperneck 12.8131 -11.8246 4.95787
head 5.90574 -5.8797 2.09477
rclavicle -7.8023e-015 1.23246e-014
rhumerus -31.4276 -30.1479 -66.7165
rradius 22.2925
rwrist 15.5985
rhand -16.226 -47.4413
rfingers 7.12502
rthumb 9.98209 -77.1846
lclavicle -7.8023e-015 1.23246e-014
lhumerus -43.4806 24.1456 77.7349
lradius 43.115
lwrist -0.826563
lhand -15.0705 -4.94927
lfingers 7.12502
lthumb 11.0967 24.7374
rfemur -0.0307177 0.450966 17.6848
rtibia 15.6911
rfoot -14.437 -10.2514
rtoes 9.69791
lfemur 2.77813 -1.68959 -13.7746
ltibia 10.4028
lfoot -13.9946 2.18583
ltoes -32.7935
621
root -0.242986 17.9119 -3.45848 181.767 175.909 178.804
lowerback 4.99998 -1.23427 -2.48261
upperback -0.376252 -1.70956 2.75641
thorax -3.03656 -0.79007 4.3765
lowerneck -7.18062 -9.0082 -8.99552
upperneck 12.7843 -11.7631 4.79523
head 5.86386 -5.85362 2.02788
rclavicle 2.31087e-015 1.82882e-014
rhumerus -31.4432 -30.2667 -66.5965
rradius 22.3355
rwrist 15.8195
rhand -16.2921 -47.4573
rfingers 7.12502
rthumb 9.91832 -77.2037
lclavicle 2.31087e-015 1.82882e-014
lhumerus -43.5005 24.0327 77.6554
lradius 43.1031
lwrist -0.814443
lhand -15.0851 -5.011
lfingers 7.12502
lthumb 11.0827 24.6764
rfemur -0.0590765 0.478381 17.4994
rtibia 15.7652
rfoot -14.4205 -10.2752
rtoes 9.91302
lfemur 2.80328 -1.70624 -13.9756
ltibia 10.3713
lfoot -13.9507 2.20052
ltoes -32.773
622
root -0.24226 17.9112 -3.45784 181.773 175.905 178.869
lowerback 5.00268 -1.22846 -2.49555
upperback -0.378929 -1.7023 2.76593
thorax -3.04089 -0.786026 4.39343
lowerneck -7.21433 -9.00302 -8.9323
upperneck 12.8563 -11.7468 4.67904
head 5.88023 -5.84985 1.98127
rclavicle -4.67144e-015 1.78906e-014
rhumerus -31.5683 -30.6599 -66.314
rradius 22.4574
rwrist 16.2504
rhand -16.2475 -47.0247
rfingers 7.12502
rthumb 9.96139 -76.769
lclavicle -4.67144e-015 1.78906e-014
lhumerus -43.4959 23.992 77.6069
lradius 43.0898
lwrist -0.917903
lhand -15.0896 -4.9158
lfingers 7.12502
lthumb 11.0784 24.7718
rfemur -0.0905319 0.501539 17.4311
rtibia 15.8376
rfoot -14.4478 -10.327
rtoes 9.81418
lfemur 2.80555 -1.67515 -14.0492
ltibia 10.3601
lfoot -13.926 2.15455
ltoes -33.0313
